<svg xmlns="http://www.w3.org/2000/svg" width="103.072" height="61.77" viewBox="0 0 103.072 61.77">
  <g id="Group_3" data-name="Group 3" transform="translate(-261.669 -430.5)">
    <path id="Path_1" data-name="Path 1" d="M261.669,430.5v61.77H364.741V430.5Zm.731,61.039V472.533H364.01v19.006Z" fill="#1a0ead"/>
    <g id="Group_1" data-name="Group 1" transform="translate(274.267 439.236)">
      <path id="Path_2" data-name="Path 2" d="M383,505.579a7.3,7.3,0,0,0-3.165-2.712,11.1,11.1,0,0,0-4.722-.95h-9.9a.506.506,0,0,0-.548.548V526.6a.542.542,0,0,0,.146.4.565.565,0,0,0,.4.146h4.357a.541.541,0,0,0,.4-.146.553.553,0,0,0,.146-.4v-8.86h4.868a10.136,10.136,0,0,0,6.557-2.054,7.189,7.189,0,0,0,2.566-5.972A7.449,7.449,0,0,0,383,505.579Zm-5.534,6.937a5.152,5.152,0,0,1-3.165.863h-4.174v-7.142h4.284a4.951,4.951,0,0,1,3.041.877,3.72,3.72,0,0,1,.015,5.4Z" transform="translate(-364.662 -501.917)" fill="#fff"/>
      <path id="Path_3" data-name="Path 3" d="M625.25,502.063a.553.553,0,0,0-.4-.146H608.327a.553.553,0,0,0-.4.146.525.525,0,0,0-.146.4V526.6a.542.542,0,0,0,.146.4.553.553,0,0,0,.4.146h4.247a.553.553,0,0,0,.4-.146.525.525,0,0,0,.146-.4v-9.554h10.951a.542.542,0,0,0,.4-.146.565.565,0,0,0,.146-.4v-3.37a.553.553,0,0,0-.146-.4.525.525,0,0,0-.4-.146H613.123v-6.184h11.718a.542.542,0,0,0,.4-.146.553.553,0,0,0,.146-.4v-3.377A.511.511,0,0,0,625.25,502.063Z" transform="translate(-578.042 -501.917)" fill="#fff"/>
      <path id="Path_4" data-name="Path 4" d="M850.146,502.063a.565.565,0,0,0-.4-.146h-4.357a.542.542,0,0,0-.4.146.553.553,0,0,0-.146.4v9.262H834.655v-9.262a.542.542,0,0,0-.146-.4.565.565,0,0,0-.4-.146H829.75a.541.541,0,0,0-.4.146.553.553,0,0,0-.146.4V526.6a.542.542,0,0,0,.146.4.553.553,0,0,0,.4.146h4.357a.506.506,0,0,0,.548-.548V516.237h10.183V526.6a.542.542,0,0,0,.146.4.553.553,0,0,0,.4.146h4.357a.541.541,0,0,0,.4-.146.554.554,0,0,0,.146-.4V502.465A.542.542,0,0,0,850.146,502.063Z" transform="translate(-772.381 -501.917)" fill="#fff"/>
    </g>
    <g id="Group_2" data-name="Group 2" transform="translate(276.975 477.373)">
      <path id="Path_5" data-name="Path 5" d="M388.239,822.12a2.506,2.506,0,0,1-1.066-1.1,3.785,3.785,0,0,1-.367-1.738v-2.363a3.785,3.785,0,0,1,.367-1.738,2.525,2.525,0,0,1,1.066-1.1,3.482,3.482,0,0,1,1.682-.379,2.977,2.977,0,0,1,1.451.349,2.858,2.858,0,0,1,1.057,1.016,4.383,4.383,0,0,1,.577,1.608h-1.682a2.177,2.177,0,0,0-.293-.728,1.408,1.408,0,0,0-.48-.462,1.254,1.254,0,0,0-.631-.16,1.514,1.514,0,0,0-.776.187,1.208,1.208,0,0,0-.489.545,2.009,2.009,0,0,0-.169.862v2.363a1.988,1.988,0,0,0,.169.859,1.21,1.21,0,0,0,.489.542,1.515,1.515,0,0,0,.776.187,1.3,1.3,0,0,0,.639-.157,1.345,1.345,0,0,0,.48-.459,2.131,2.131,0,0,0,.284-.734h1.682a4.459,4.459,0,0,1-.583,1.608,2.866,2.866,0,0,1-1.054,1.016,2.96,2.96,0,0,1-1.448.349A3.5,3.5,0,0,1,388.239,822.12Z" transform="translate(-386.806 -813.708)" fill="#1a0ead"/>
      <path id="Path_6" data-name="Path 6" d="M468.466,814.435h1.623v8.611h-1.623Zm.723,7.047h5.046v1.563h-5.046Z" transform="translate(-458.478 -814.346)" fill="#1a0ead"/>
      <path id="Path_7" data-name="Path 7" d="M545.139,814.435h1.623v8.611h-1.623Zm.586,0h5.182V816h-5.182Zm0,3.553h4.531v1.564h-4.531Zm0,3.494h5.182v1.563h-5.182Z" transform="translate(-525.772 -814.346)" fill="#1a0ead"/>
      <path id="Path_8" data-name="Path 8" d="M620.748,814.435h1.03l3.293,8.611h-1.747l-2.061-5.881-2.061,5.881h-1.747Zm-1.712,5.667h4.531v1.563h-4.531Z" transform="translate(-589.243 -814.346)" fill="#1a0ead"/>
      <path id="Path_9" data-name="Path 9" d="M708.264,814.386h1.623V823h-1.623Zm.646,3.589h3a.781.781,0,0,0,.438-.124.808.808,0,0,0,.293-.355,1.362,1.362,0,0,0,.11-.533,1.292,1.292,0,0,0-.1-.533.808.808,0,0,0-.293-.355.791.791,0,0,0-.444-.124h-3v-1.563h3.127a2.4,2.4,0,0,1,1.25.32,2.163,2.163,0,0,1,.835.9,3.24,3.24,0,0,1,0,2.706,2.157,2.157,0,0,1-.838.9,2.406,2.406,0,0,1-1.247.32H708.91Zm1.812,1.3,1.735-.272,2.322,4h-1.966Z" transform="translate(-668.944 -814.303)" fill="#1a0ead"/>
      <path id="Path_10" data-name="Path 10" d="M793.445,823.046h-1.682v-8.611h1.682Z" transform="translate(-742.23 -814.346)" fill="#1a0ead"/>
      <path id="Path_11" data-name="Path 11" d="M839.871,814.435h1.984l3.2,6.6-.142.154v-6.751h1.551v8.6h-2l-3.192-6.5.142-.154v6.651h-1.551Z" transform="translate(-784.453 -814.346)" fill="#1a0ead"/>
      <path id="Path_12" data-name="Path 12" d="M933.979,817.593v1.682a3.557,3.557,0,0,1-.388,1.691,2.746,2.746,0,0,1-1.1,1.131,3.3,3.3,0,0,1-1.646.4,3.534,3.534,0,0,1-1.661-.376,2.688,2.688,0,0,1-1.113-1.063,3.146,3.146,0,0,1-.394-1.593v-2.541a3.537,3.537,0,0,1,.388-1.688,2.749,2.749,0,0,1,1.1-1.128,3.3,3.3,0,0,1,1.646-.4,3.207,3.207,0,0,1,1.421.317,2.957,2.957,0,0,1,1.087.9,3.292,3.292,0,0,1,.589,1.344h-1.753a1.141,1.141,0,0,0-.293-.471,1.376,1.376,0,0,0-.48-.3,1.608,1.608,0,0,0-.571-.1,1.5,1.5,0,0,0-.761.19,1.292,1.292,0,0,0-.509.539,1.727,1.727,0,0,0-.181.805v2.541a1.361,1.361,0,0,0,.184.711,1.212,1.212,0,0,0,.521.474,1.753,1.753,0,0,0,.782.166,1.567,1.567,0,0,0,.767-.181,1.224,1.224,0,0,0,.506-.524,1.744,1.744,0,0,0,.178-.811v-.142h-1.3v-1.563Z" transform="translate(-861.52 -813.708)" fill="#1a0ead"/>
    </g>
  </g>
</svg>
